<?xml version="1.0" encoding="utf-8"?>
<!-- Generator: Adobe Illustrator 16.0.3, SVG Export Plug-In . SVG Version: 6.00 Build 0)  -->
<!DOCTYPE svg PUBLIC "-//W3C//DTD SVG 1.1//EN" "http://www.w3.org/Graphics/SVG/1.1/DTD/svg11.dtd">
<svg version="1.1" id="Capa_1" xmlns="http://www.w3.org/2000/svg" xmlns:xlink="http://www.w3.org/1999/xlink" x="0px" y="0px"
	 width="239.333px" height="50.667px" viewBox="0 0 239.333 50.667" enable-background="new 0 0 239.333 50.667"
	 xml:space="preserve">
<g>
	<path d="M20.607,45.104l0.72-4.14c-2.56,3.28-5.9,4.92-10.02,4.92c-2.56,0-4.59-0.76-6.09-2.28s-2.25-3.56-2.25-6.12
		c0-0.879,0.08-1.7,0.24-2.46l3.42-19.44h7.8l-3.24,18.24c-0.081,0.4-0.141,0.76-0.18,1.08c-0.041,0.321-0.06,0.641-0.06,0.96
		c0,1.401,0.36,2.331,1.08,2.79c0.72,0.46,1.779,0.69,3.18,0.69c1.92,0,3.52-0.63,4.8-1.89c1.279-1.26,2.1-2.87,2.46-4.83l3-17.04
		h7.74l-5.22,29.52H20.607z"/>
	<path d="M50.308,45.104l3.18-17.88c0.08-0.48,0.14-0.93,0.18-1.35c0.04-0.42,0.06-0.81,0.06-1.17c0-1.32-0.34-2.2-1.02-2.64
		c-0.681-0.439-1.76-0.66-3.24-0.66c-4.041,0-6.46,2.261-7.26,6.78l-3,16.92h-7.8l5.22-29.52h7.44l-0.78,4.32
		c1.2-1.68,2.64-2.949,4.32-3.81c1.68-0.86,3.72-1.29,6.12-1.29c2.48,0,4.47,0.64,5.97,1.92c1.5,1.28,2.25,3.16,2.25,5.64
		c0,0.761-0.06,1.521-0.18,2.28l-3.6,20.46H50.308z"/>
	<path d="M63.028,45.104l4.26-24h-4.38l0.96-5.52h4.38c1.24-7.2,6.04-10.8,14.4-10.8l-1.08,6.3c-1,0-1.83,0.07-2.49,0.21
		c-0.66,0.141-1.2,0.39-1.62,0.75c-0.42,0.36-0.74,0.831-0.96,1.41c-0.22,0.58-0.411,1.29-0.57,2.13h5.04l-0.96,5.52h-5.04l-4.26,24
		H63.028z"/>
	<path d="M94.708,45.104c-0.041-0.2-0.07-0.399-0.09-0.6c-0.021-0.2-0.03-0.42-0.03-0.66c0-0.2,0.009-0.42,0.03-0.66
		c0.02-0.24,0.049-0.48,0.09-0.72c-1.12,1.041-2.49,1.871-4.11,2.49c-1.62,0.62-3.431,0.93-5.43,0.93c-2.96,0-5.13-0.61-6.51-1.83
		c-1.38-1.22-2.07-2.85-2.07-4.89c0-2.199,0.37-4,1.11-5.4c0.74-1.4,1.79-2.529,3.15-3.39c1.359-0.86,3-1.52,4.92-1.98
		c1.92-0.459,4.059-0.85,6.42-1.17c1.32-0.16,2.36-0.36,3.12-0.6c0.759-0.24,1.32-0.489,1.68-0.75c0.36-0.26,0.58-0.56,0.66-0.9
		c0.08-0.339,0.12-0.71,0.12-1.11c0-1.279-0.4-2.109-1.2-2.49c-0.8-0.38-1.9-0.57-3.3-0.57c-1.8,0-3.161,0.4-4.08,1.2
		c-0.92,0.801-1.581,1.86-1.98,3.18h-7.26c0.28-1.52,0.77-2.919,1.47-4.2c0.699-1.28,1.64-2.379,2.82-3.3
		c1.18-0.92,2.63-1.629,4.35-2.13c1.719-0.5,3.759-0.75,6.12-0.75c3.919,0,6.709,0.71,8.37,2.13c1.659,1.42,2.49,3.471,2.49,6.15
		c0,0.561-0.03,1.11-0.09,1.65s-0.13,1.11-0.21,1.71l-3.3,18.66H94.708z M96.688,30.644c-0.44,0.4-1.061,0.72-1.86,0.96
		c-0.801,0.24-1.96,0.5-3.48,0.78c-1.401,0.24-2.541,0.531-3.42,0.87c-0.88,0.34-1.56,0.72-2.04,1.14s-0.81,0.9-0.99,1.44
		s-0.27,1.15-0.27,1.83c0,0.92,0.32,1.59,0.96,2.01c0.64,0.42,1.479,0.63,2.52,0.63c0.96,0,1.88-0.17,2.76-0.51
		c0.879-0.339,1.68-0.8,2.4-1.38c0.72-0.58,1.329-1.26,1.83-2.04c0.5-0.78,0.83-1.61,0.99-2.49L96.688,30.644z"/>
	<path d="M140.008,45.104l3.18-17.88c0.12-0.72,0.18-1.359,0.18-1.92c0-1.479-0.34-2.54-1.02-3.18c-0.681-0.639-1.6-0.96-2.76-0.96
		c-1.521,0-2.83,0.6-3.93,1.8c-1.101,1.2-1.811,2.7-2.13,4.5l-3.12,17.64h-7.8l3.12-17.76c0.08-0.6,0.14-1.14,0.18-1.62
		c0.039-0.48,0.08-0.92,0.12-1.32c0-1.279-0.321-2.1-0.96-2.46c-0.641-0.36-1.62-0.54-2.94-0.54c-3.2,0-5.121,1.92-5.76,5.76
		l-3.18,17.94h-7.8l5.22-29.52h7.32l-0.78,4.32c1.359-1.959,2.799-3.3,4.32-4.02c1.52-0.72,3.26-1.08,5.22-1.08
		c1,0,1.87,0.081,2.61,0.24c0.739,0.16,1.389,0.43,1.95,0.81c0.56,0.381,1.06,0.87,1.5,1.47c0.44,0.6,0.879,1.32,1.32,2.16
		c1.119-1.64,2.4-2.829,3.84-3.57c1.44-0.74,3.099-1.11,4.98-1.11c2.64,0,4.719,0.76,6.24,2.28c1.52,1.521,2.28,3.44,2.28,5.76
		c0,0.6-0.06,1.2-0.18,1.8l-3.6,20.46H140.008z"/>
	<path d="M150.808,45.104l5.22-29.52h7.8l-5.22,29.52H150.808z M156.628,12.043l1.26-7.26h7.8l-1.26,7.26H156.628z"/>
	<path d="M162.147,45.104l7.08-40.32h7.8l-7.08,40.32H162.147z"/>
	<path d="M173.427,45.104l5.22-29.52h7.8l-5.22,29.52H173.427z M179.247,12.043l1.26-7.26h7.8l-1.26,7.26H179.247z"/>
	<path d="M203.246,45.104c-0.04-0.2-0.07-0.399-0.09-0.6c-0.021-0.2-0.03-0.42-0.03-0.66c0-0.2,0.01-0.42,0.03-0.66
		c0.02-0.24,0.05-0.48,0.09-0.72c-1.12,1.041-2.49,1.871-4.11,2.49s-3.43,0.93-5.43,0.93c-2.961,0-5.13-0.61-6.51-1.83
		s-2.07-2.85-2.07-4.89c0-2.199,0.369-4,1.11-5.4c0.739-1.4,1.789-2.529,3.149-3.39c1.359-0.86,3-1.52,4.92-1.98
		c1.92-0.459,4.06-0.85,6.42-1.17c1.32-0.16,2.36-0.36,3.12-0.6c0.76-0.24,1.32-0.489,1.681-0.75c0.359-0.26,0.579-0.56,0.66-0.9
		c0.079-0.339,0.119-0.71,0.119-1.11c0-1.279-0.4-2.109-1.199-2.49c-0.801-0.38-1.9-0.57-3.301-0.57c-1.8,0-3.16,0.4-4.08,1.2
		c-0.92,0.801-1.58,1.86-1.979,3.18h-7.26c0.279-1.52,0.77-2.919,1.47-4.2c0.699-1.28,1.64-2.379,2.82-3.3
		c1.179-0.92,2.629-1.629,4.35-2.13c1.72-0.5,3.76-0.75,6.12-0.75c3.92,0,6.71,0.71,8.37,2.13c1.659,1.42,2.49,3.471,2.49,6.15
		c0,0.561-0.03,1.11-0.091,1.65c-0.06,0.54-0.13,1.11-0.21,1.71l-3.3,18.66H203.246z M205.226,30.644
		c-0.44,0.4-1.06,0.72-1.859,0.96c-0.801,0.24-1.961,0.5-3.48,0.78c-1.4,0.24-2.54,0.531-3.42,0.87c-0.88,0.34-1.56,0.72-2.04,1.14
		c-0.479,0.42-0.81,0.9-0.989,1.44c-0.181,0.54-0.271,1.15-0.271,1.83c0,0.92,0.319,1.59,0.96,2.01c0.64,0.42,1.479,0.63,2.521,0.63
		c0.96,0,1.879-0.17,2.76-0.51c0.879-0.339,1.68-0.8,2.399-1.38c0.721-0.58,1.33-1.26,1.83-2.04s0.83-1.61,0.99-2.49L205.226,30.644
		z"/>
	<path d="M213.925,45.104l5.221-29.52h7.319l-0.659,3.54c0.84-1,1.659-1.779,2.46-2.34c0.799-0.56,1.59-0.99,2.369-1.29
		c0.78-0.3,1.561-0.49,2.341-0.57c0.779-0.08,1.569-0.12,2.37-0.12h1.02l-1.38,7.98c-0.72-0.12-1.44-0.18-2.16-0.18
		c-4.761,0-7.56,2.38-8.4,7.14l-2.699,15.36H213.925z"/>
</g>
</svg>
