<?xml version="1.0" encoding="utf-8"?>
<!-- Generator: Adobe Illustrator 16.0.3, SVG Export Plug-In . SVG Version: 6.00 Build 0)  -->
<!DOCTYPE svg PUBLIC "-//W3C//DTD SVG 1.1//EN" "http://www.w3.org/Graphics/SVG/1.1/DTD/svg11.dtd">
<svg version="1.1" id="Capa_1" xmlns="http://www.w3.org/2000/svg" xmlns:xlink="http://www.w3.org/1999/xlink" x="0px" y="0px"
	 width="362.721px" height="72px" viewBox="0 0 362.721 72" enable-background="new 0 0 362.721 72" xml:space="preserve">
<g>
	<path fill-rule="evenodd" clip-rule="evenodd" fill="#343434" d="M180.441,39.83c-0.99,2.277-2.04,4.531-2.948,6.839
		c-0.497,1.265,0.447,2.02,1.343,2.702c-1.816,1.568-3.55,1.591-5.185-0.272c4.333-6.234,6.418-13.531,9.586-20.314
		c1.887-4.042,3.609-8.16,5.747-13.018c3.01,6.771,5.554,12.854,8.403,18.791c2.371,4.942,3.681,10.423,7.323,14.734
		c-2.204,1.556-5.763,1.459-7.435-0.201c0.857-3.281-1.68-5.708-2.168-8.65c-0.212-0.452-0.484-1.017-0.969-1.021
		C189.569,39.378,184.971,38.582,180.441,39.83z"/>
	<path fill-rule="evenodd" clip-rule="evenodd" fill="#343434" d="M3.754,49.215c4.311-5.437,5.884-12.196,8.796-18.308
		c2.234-4.687,4.164-9.52,6.209-14.242c1.533,0.243,1.533,1.452,1.894,2.259c3.815,8.509,7.557,17.053,11.344,25.574
		c0.745,1.676,1.408,3.417,2.796,4.72c-1.957,1.585-5.545,1.569-7.413-0.035c1.186-3.578-1.813-6.138-2.264-9.318
		c-4.879-0.986-9.752-1.182-14.617,0.098c-0.815,2.065-1.369,4.292-2.523,6.148c-1.081,1.736-0.025,2.303,0.942,3.146
		c0.256,0.44,0.157,0.774-0.299,1.001C7.029,49.766,4.936,51.615,3.754,49.215z"/>
	<path fill-rule="evenodd" clip-rule="evenodd" fill="#333333" d="M275.611,50.161c-6.585-7.99-13.144-16.004-19.794-23.939
		c-0.739-0.88-1.023-2.726-2.929-2.102c-1.072,5.753-0.153,11.565-0.533,17.335c-0.074,1.113,0.954,2.721-0.996,3.328
		c-0.055-6.93-0.193-13.86-0.115-20.789c0.025-2.33-0.31-4.307-2.243-5.775c2.076-0.726,4.172-0.46,6.269-0.122
		c6.319,7.605,12.636,15.211,19.739,23.762c0-6.879,0-12.686,0-18.493c0.312,0.109,0.848-0.07,0.854,0.461
		C275.991,32.606,276.504,41.391,275.611,50.161z"/>
	<path fill-rule="evenodd" clip-rule="evenodd" fill="#343434" d="M146.185,49.858c2.58-0.895,5.105-1.78,5.564-5.075
		c0.5-3.59-1.396-5.729-4.148-7.5c-3.183-2.049-6.506-3.947-9.414-6.341c-3.44-2.832-3.717-7.29-1.186-10.896
		c2.36-3.363,6.364-4.4,10.218-2.649c-0.117,0.429-0.559,0.485-0.84,0.724c-2.751,0.112-5.638,0.218-6.538,3.5
		c-0.949,3.459,1.275,5.481,3.855,7.179c3.167,2.085,6.436,4.031,9.489,6.271c3.026,2.219,4.368,5.378,3.277,9.061
		c-1.128,3.813-3.674,6.268-7.872,6.572C147.861,50.217,146.73,50.871,146.185,49.858z"/>
	<path fill-rule="evenodd" clip-rule="evenodd" fill="#343434" d="M351.762,49.104c4.369-4.123,4.136-8.016-0.808-11.48
		c-2.412-1.691-4.993-3.139-7.463-4.752c-4.676-3.057-6.198-6.644-4.658-10.828c1.535-4.161,5.177-5.943,10.73-5.25
		c-0.32,1.898-2.153,0.418-2.925,1.308c-4.879,2.158-5.672,6.266-1.591,9.491c2.761,2.184,5.958,3.808,8.855,5.83
		c2.266,1.583,4.777,3.053,5.228,6.207c-0.254,1.707-0.117,3.42-0.076,5.13c-1.166,3.508-3.587,5.476-7.258,5.908
		C351.357,50.156,351.359,49.634,351.762,49.104z"/>
	<path fill-rule="evenodd" clip-rule="evenodd" fill="#343434" d="M53.329,19.662c-0.349-0.454-0.697-0.908-1.045-1.361
		c2.378-1.1,4.719-1.754,6.799,0.59c-1.193,3.1-0.542,6.329-0.605,9.496c-0.109,5.412-0.042,10.829-0.021,16.244
		c0.005,1.327-0.286,2.731,0.714,3.886c3.691,0.587,7.387,0.491,11.086,0.07c2.428-0.353,4.386-1.486,5.718-3.567
		c0.333-0.521,0.547-1.246,1.282-0.96c0.939,0.366,0.572,1.224,0.366,1.878c-0.428,1.36-0.943,2.692-1.423,4.035
		c-7.845,0.773-15.709,0.17-23.563,0.299c-0.563,0.009-0.845-0.39-0.801-0.972c0.518-0.521,1.035-1.042,1.553-1.563
		c0.25-0.565,0.486-1.135,0.57-1.754c0.085-8.2,0.089-16.399-0.003-24.595C53.855,20.773,53.654,20.195,53.329,19.662z"/>
	<path fill-rule="evenodd" clip-rule="evenodd" fill="#363636" d="M315.577,18.807c-3.991-0.557-5.063,1.113-4.832,5.082
		c0.396,6.833,0.071,13.708,0.137,20.565c0.018,1.758-0.41,3.786,1.699,4.863c-2.179,1.455-6.094,1.419-8.062-0.073
		c1.735-1.149,1.466-2.959,1.474-4.636c0.027-6.715,0.012-13.43,0.014-20.145c0-5.411,0-5.411-5.182-5.627
		c0.029-0.246,0.053-0.667,0.137-0.675c4.816-0.558,9.637-0.506,14.456-0.024C315.507,18.145,315.54,18.562,315.577,18.807z"/>
	<path fill-rule="evenodd" clip-rule="evenodd" fill="#353535" d="M230.153,18.327c-0.923,1.081-1.164,2.368-1.163,3.744
		c0.004,7.808-0.013,15.615,0.008,23.424c0.004,1.455-0.044,2.99,1.57,3.807c-0.751,2.072-2.461,0.728-3.696,0.957
		c-1.294,0.24-2.676,0.107-4.018,0.007c-0.491-0.2-0.61-0.531-0.356-0.997c1.039-0.647,1.451-1.609,1.449-2.802
		c-0.016-8.616-0.018-17.232-0.065-25.847c-0.003-0.583-0.345-1.165-0.53-1.747C225.45,16.563,227.779,17.175,230.153,18.327z"/>
	<path fill-rule="evenodd" clip-rule="evenodd" fill="#333333" d="M101.486,18.275c-0.528,1.009-1.057,2.018-1.586,3.028
		c-0.99,3.052-0.454,6.196-0.409,9.282c0.079,5.428-0.608,10.884,0.401,16.289c0.235,0.495,0.47,0.99,0.705,1.486
		c3.913,0.956,7.847,0.572,11.782,0.188c3.286-0.75,5.135-3.257,7.456-5.665c-0.546,2.344-1.092,4.688-1.638,7.032
		c-8.16,0.824-16.332,0.341-24.501,0.247c-0.542-0.007-0.365-0.525-0.468-0.836c1.17-0.046,1.248-1.324,2.034-1.804
		c1.084-1.154,0.454-2.561,0.468-3.825c0.076-6.862,0.07-13.727,0.003-20.589c-0.011-1.12,0.633-2.438-0.583-3.38
		c-0.453-0.497-0.906-0.996-1.359-1.492C96.363,17.027,98.927,16.97,101.486,18.275z"/>
	<path fill-rule="evenodd" clip-rule="evenodd" fill="#303030" d="M315.577,18.807c-4.919-1-9.836-1.05-14.752,0.029
		c-3.921,0.323-5.53,2.98-6.752,6.389c0-2.221,0.028-4.443-0.01-6.664c-0.027-1.551,1.046-1.358,2.014-1.359
		c8.216-0.002,16.434,0.021,24.651-0.021c1.479-0.007,2.297,0.341,2.205,2.034c-0.105,1.949-0.025,3.908-0.294,6.171
		C321.472,21.804,319.784,18.834,315.577,18.807z"/>
	<path fill-rule="evenodd" clip-rule="evenodd" fill="#3A3A3A" d="M345.903,50.634c-2.24,0.159-4.221-2.08-6.654-0.643
		c-0.561,0.332-1.052-0.458-1.14-1.1c-0.328-2.351-0.616-4.706-0.5-7.352c2.42,4.447,5.574,7.674,10.669,8.324
		C347.709,50.803,346.561,49.967,345.903,50.634z"/>
	<path fill-rule="evenodd" clip-rule="evenodd" fill="#282828" d="M251.358,44.782c1.539-5.354,0.239-10.826,0.703-16.222
		c0.129-1.496-0.685-3.197,0.827-4.441c0.032,6.719,0.214,13.444,0.006,20.156c-0.067,2.189,0.419,3.714,2.09,4.962
		c-1.95,1.689-3.906,1.643-5.869,0.026C250.877,48.277,250.92,46.431,251.358,44.782z"/>
	<path fill-rule="evenodd" clip-rule="evenodd" fill="#353535" d="M346.639,18.102c0.974-0.436,1.949-0.873,2.925-1.308
		c2.532-0.092,5.037,2.901,7.926-0.672c0.145,2.565,0.25,4.423,0.356,6.282c0.008,0.904,0.969,2.14-0.84,2.416
		C355.043,20.276,351.611,17.998,346.639,18.102z"/>
	<path fill-rule="evenodd" clip-rule="evenodd" fill="#383838" d="M142.704,50.583c-4.904-1.152-4.904-1.152-7.26,0.195
		c-0.049-2.813-1.251-5.387-0.552-9.519c2.608,4.885,5.576,7.906,10.198,8.593C144.493,50.744,143.392,49.987,142.704,50.583z"/>
	<path fill-rule="evenodd" clip-rule="evenodd" fill="#2C2C2C" d="M275.611,50.161c0.025-8.026,0.056-16.051,0.071-24.077
		c0.002-0.953,0.193-1.973-0.675-2.718c-0.048-0.674-0.096-1.347-0.144-2.021c-0.231-0.575-0.474-1.219,0.222-1.587
		c0.669-0.353,1.133,0.166,1.424,0.686c0.446,0.797,0.301,1.647,0.024,2.476c0.036,8.993,0.074,17.988,0.097,26.981
		c0.001,0.203-0.115,0.468-0.268,0.596C275.933,50.864,275.803,50.412,275.611,50.161z"/>
	<path fill-rule="evenodd" clip-rule="evenodd" fill="#333333" d="M146.379,18.121c0.28-0.241,0.56-0.483,0.84-0.724
		c2.113-0.087,4.07,1.46,6.422,0.053c1.088-0.651,0.937,1.135,0.929,2.013c0.64,1.229-0.053,2.643,0.541,3.878
		c0.251,0.947,0.443,1.894-0.301,3.74C153.385,22.189,150.659,19.314,146.379,18.121z"/>
	<path fill-rule="evenodd" clip-rule="evenodd" fill="#6C6C6C" d="M93.228,49.325c1.483,1.312,3.263,0.584,4.883,0.604
		c6.694,0.08,13.39,0.004,20.085-0.014c-0.24,0.237-0.479,0.679-0.719,0.68c-8.746,0.035-17.491,0.029-26.404,0.029
		C91.557,49.346,92.45,49.447,93.228,49.325z"/>
	<path fill-rule="evenodd" clip-rule="evenodd" fill="#6B6B6B" d="M51.833,49.3c1.485,1.332,3.278,0.607,4.909,0.63
		c6.484,0.098,12.971,0.041,19.456,0.042c-0.123,0.2-0.246,0.572-0.37,0.573c-8.808,0.026-17.617,0.023-26.689,0.023
		C49.97,49.396,50.896,49.333,51.833,49.3z"/>
	<path fill-rule="evenodd" clip-rule="evenodd" fill="#2C2C2C" d="M95.15,19.727c0.796,0.341,0.962,1.024,0.962,1.791
		c0.005,8.527,0.01,17.054,0.002,25.581c0,0.2-0.106,0.496-0.252,0.573c-0.137,0.072-0.396-0.091-0.601-0.15
		C95.224,38.256,95.188,28.992,95.15,19.727z"/>
	<path fill-rule="evenodd" clip-rule="evenodd" fill="#444444" d="M53.329,19.662c0.252,0.273,0.503,0.547,0.756,0.821
		c0.474,8.806,0.434,17.612,0.023,26.418c-0.241,0.279-0.481,0.557-0.721,0.836C53.367,38.378,53.348,29.02,53.329,19.662z"/>
	<path fill-rule="evenodd" clip-rule="evenodd" fill="#292929" d="M99.892,46.874c-0.36,0.274-0.774,0.178-0.776-0.215
		C99.082,38.106,99.083,29.553,99.094,21c0-0.169,0.188-0.339,0.288-0.508c0.173,0.271,0.347,0.541,0.519,0.812
		C99.898,29.827,99.895,38.351,99.892,46.874z"/>
	<path fill-rule="evenodd" clip-rule="evenodd" fill="#7A7A7A" d="M92.529,18.043c-0.454,0.033-1.067,0.303-1.254-0.289
		c-0.298-0.946,0.517-0.869,1.056-0.871c4.064-0.02,8.129-0.011,12.628-0.011c-0.694,1.45-1.505,1.279-2.276,1.193
		C99.299,17.63,95.915,17.657,92.529,18.043z"/>
	<path fill-rule="evenodd" clip-rule="evenodd" fill="#737373" d="M221.064,18.092c-0.467-0.013-1.065,0.208-1.285-0.378
		c-0.262-0.698,0.348-0.792,0.8-0.794c4.243-0.021,8.485-0.013,13.01-0.013c-0.622,1.553-1.509,1.242-2.282,1.216
		C227.896,17.42,224.479,17.909,221.064,18.092z"/>
	<path fill-rule="evenodd" clip-rule="evenodd" fill="#666666" d="M304.52,49.243c2.677,1.21,5.365,1.09,8.062,0.073
		c0.918,0.204,1.834,0.407,2.753,0.611c-0.008,0.167-0.021,0.333-0.03,0.5c-4.533,0-9.068,0-13.847,0
		C302.323,49.483,303.391,49.301,304.52,49.243z"/>
	<path fill-rule="evenodd" clip-rule="evenodd" fill="#707070" d="M51.106,18.092c-0.436-0.1-1.082-0.06-1.262-0.329
		c-0.412-0.615,0.224-0.817,0.663-0.821c4.04-0.028,8.08-0.016,12.288-0.016c-0.5,1.673-1.468,1.088-2.189,1.186
		C57.44,17.883,54.274,17.446,51.106,18.092z"/>
	<path fill-rule="evenodd" clip-rule="evenodd" fill="#424242" d="M180.441,39.83c4.737-1.808,9.55-1.093,14.352-0.377
		c0.15,0.022,0.211,0.644,0.313,0.988C190.284,38.665,185.341,39.755,180.441,39.83z"/>
	<path fill-rule="evenodd" clip-rule="evenodd" fill="#5F5F5F" d="M27.38,49.183c2.466,1.207,4.937,1.16,7.413,0.035
		c0.655,0.265,1.311,0.528,3.003,1.211c-5.025,0-8.962,0-13.192,0C25.343,49.41,26.474,49.501,27.38,49.183z"/>
	<path fill-rule="evenodd" clip-rule="evenodd" fill="#383838" d="M10.499,39.962c0.405-1.221,1.463-1.193,2.388-1.069
		c4.061,0.542,8.309-1.279,12.229,0.971C20.241,39.415,15.367,39.216,10.499,39.962z"/>
	<path fill-rule="evenodd" clip-rule="evenodd" fill="#5C5C5C" d="M197.275,49.091c2.442,1.417,4.931,1.129,7.435,0.201
		c0.559,0.198,1.116,0.396,1.673,0.593c-0.008,0.161-0.017,0.319-0.024,0.48c-3.851,0-7.701,0-11.828,0
		C195.254,49.411,196.374,49.439,197.275,49.091z"/>
	<path fill-rule="evenodd" clip-rule="evenodd" fill="#6A6A6A" d="M249.115,49.264c1.96,1.023,3.917,1.05,5.869-0.026
		c0.994-0.058,1.839,0.297,3.217,1.211c-4.251,0-7.884,0-11.776,0C247.083,49.366,248.086,49.29,249.115,49.264z"/>
	<path fill-rule="evenodd" clip-rule="evenodd" fill="#606060" d="M222.513,49.943c2.674-0.351,5.465,0.766,8.056-0.642
		c0.924,0.199,1.85,0.396,2.773,0.595c-0.003,0.227-0.007,0.456-0.01,0.683c-3.858,0-7.715,0-11.572,0
		C221.668,49.963,221.757,49.559,222.513,49.943z"/>
	<path fill-rule="evenodd" clip-rule="evenodd" fill="#393939" d="M276.534,22.919c-0.313-0.924,0.199-2.177-1.069-2.679
		c-0.048-0.019-0.394,0.72-0.602,1.104c-0.569-0.999-1.138-1.998-1.707-2.996c1.618-0.637,3.229-1.222,4.564,0.538
		C277.325,20.231,276.93,21.575,276.534,22.919z"/>
	<path fill-rule="evenodd" clip-rule="evenodd" fill="#2A2A2A" d="M277.721,18.887c-1.429-0.963-3-0.714-4.564-0.538
		c-0.687-0.136-1.375-0.271-2.062-0.405c0.006-0.145,0.012-0.29,0.019-0.434c3.222,0,6.443,0,9.726,0
		C280.129,18.819,278.399,17.653,277.721,18.887z"/>
	<path fill-rule="evenodd" clip-rule="evenodd" fill="#434343" d="M112.378,48.548c-3.945,1.064-7.879,1.42-11.782-0.188
		C104.512,49.206,108.45,48.524,112.378,48.548z"/>
	<path fill-rule="evenodd" clip-rule="evenodd" fill="#2C2C2C" d="M221.064,18.092c3.417-0.851,6.833-0.918,10.244,0.032
		c-0.384,0.068-0.77,0.136-1.154,0.204c-2.285-0.057-4.613-0.628-6.8,0.545C222.59,18.612,221.827,18.352,221.064,18.092z"/>
	<path fill-rule="evenodd" clip-rule="evenodd" fill="#2C2C2C" d="M51.106,18.092c3.168-0.849,6.335-0.883,9.5,0.02
		c-0.508,0.26-1.017,0.519-1.524,0.778c-2.18-1.198-4.514-0.604-6.799-0.59C51.891,18.231,51.499,18.162,51.106,18.092z"/>
	<path fill-rule="evenodd" clip-rule="evenodd" fill="#444444" d="M70.255,48.586c-3.702,0.997-7.399,1.275-11.086-0.07
		C62.861,49.041,66.56,48.591,70.255,48.586z"/>
	<path fill-rule="evenodd" clip-rule="evenodd" fill="#424242" d="M173.651,49.099c1.66,1.392,3.41,1.063,5.185,0.272
		c0.657,0.234,1.315,0.47,2.938,1.048c-3.955,0-6.897,0-10.506,0C172.449,49.765,173.05,49.432,173.651,49.099z"/>
	<path fill-rule="evenodd" clip-rule="evenodd" fill="#272727" d="M345.903,50.634c0.61-0.816,1.587-0.501,2.375-0.771
		c1.16-0.253,2.323-0.506,3.483-0.759c0.012,0.521,0.022,1.042,0.035,1.563C349.827,51.462,347.864,51.252,345.903,50.634z"/>
	<path fill-rule="evenodd" clip-rule="evenodd" fill="#292929" d="M92.529,18.043c3.386-0.758,6.771-0.847,10.154,0.022
		c-0.399,0.07-0.798,0.14-1.197,0.21c-2.565-0.014-5.13-0.027-7.695-0.041C93.371,18.171,92.95,18.106,92.529,18.043z"/>
	<path fill-rule="evenodd" clip-rule="evenodd" fill="#797979" d="M3.754,49.215c1.538,1.566,3.446,0.509,5.175,0.733
		c0.165,0.137,0.223,0.277,0.176,0.421c-0.048,0.147-0.098,0.221-0.151,0.221c-2.273,0-4.548,0-6.954,0
		C2.131,49.419,2.931,49.304,3.754,49.215z"/>
	<path fill-rule="evenodd" clip-rule="evenodd" fill="#282828" d="M142.704,50.583c0.634-0.771,1.595-0.475,2.387-0.73
		c0.364,0.002,0.729,0.004,1.094,0.006c0.82,0.229,1.826-0.069,2.407,0.845C146.61,51.577,144.656,51.129,142.704,50.583z"/>
	<path fill-rule="evenodd" clip-rule="evenodd" fill="#2C2C2C" d="M255.269,18.096c-2.09,0.04-4.179,0.081-6.269,0.122
		c-0.464-0.102-1.031-0.079-1.36-0.346c-0.258-0.211,0.075-0.641,0.455-0.592C250.482,17.58,253.059,16.251,255.269,18.096z"/>
	<path fill-rule="evenodd" clip-rule="evenodd" fill="#2B2B2B" d="M359.055,44.759c-0.897-1.724-0.991-3.436,0.076-5.13
		C359.98,41.352,359.753,43.059,359.055,44.759z"/>
	<path fill-rule="evenodd" clip-rule="evenodd" fill="#5C5C5C" d="M357.006,24.819c0.979-0.563,0.471-1.643,0.84-2.416
		c0.623,1.424,0.847,2.873,0.474,4.5C357.127,26.477,357.027,25.67,357.006,24.819z"/>
	<path fill-rule="evenodd" clip-rule="evenodd" fill="#5B5B5B" d="M8.954,50.591c-0.021-0.214-0.03-0.428-0.025-0.643
		c-0.008-0.231-0.011-0.461-0.011-0.691c0.863,0.219,1.833,0.219,2.399,1.126C10.537,50.914,9.738,50.667,8.954,50.591z"/>
	<path fill-rule="evenodd" clip-rule="evenodd" fill="#5F5F5F" d="M222.513,49.943c-0.251,0.212-0.502,0.424-0.752,0.636
		c-0.831,0.142-1.663,0.281-2.526-0.192c0.924-0.944,2.113-0.978,3.264-1.119C222.473,49.495,222.478,49.719,222.513,49.943z"/>
	<path fill-rule="evenodd" clip-rule="evenodd" fill="#393939" d="M155.111,23.34c-1.053-1.171-0.51-2.564-0.541-3.877
		C155.179,20.695,155.211,22.009,155.111,23.34z"/>
	<path fill-rule="evenodd" clip-rule="evenodd" fill="#FDFDFD" d="M181.726,36.665c1.541-3.741,3.108-7.47,4.59-11.235
		c0.214-0.545,0.059-1.285,0.842-1.397c0.979-0.139,1.135,0.688,1.417,1.357c1.676,3.954,3.364,7.903,5.048,11.853
		c-3.788,0.984-7.616,0.493-11.432,0.291C181.714,37.511,181.827,36.988,181.726,36.665z"/>
	<path fill-rule="evenodd" clip-rule="evenodd" fill="#424242" d="M181.726,36.665c3.88,1.962,7.906,0.91,11.897,0.578
		c-3.89,1.945-7.956,0.77-11.951,0.603C181.182,37.826,181.384,37.063,181.726,36.665z"/>
	<path fill-rule="evenodd" clip-rule="evenodd" fill="#FCFCFC" d="M11.817,36.664c1.845-4.216,3.69-8.433,5.905-13.493
		c2.296,5.117,4.174,9.307,6.052,13.495c0.035,0.771-0.41,1.056-1.101,1.065c-3.252,0.04-6.504,0.04-9.756,0
		C12.226,37.722,11.783,37.435,11.817,36.664z"/>
	<path fill-rule="evenodd" clip-rule="evenodd" fill="#383838" d="M11.817,36.664c3.985,1.676,7.971,1.707,11.957,0.002
		c0.496,0.571,0.56,1.316-0.263,1.337c-3.806,0.1-7.617,0.1-11.423,0.002C11.264,37.983,11.33,37.239,11.817,36.664z"/>
	<path fill-rule="evenodd" clip-rule="evenodd" fill="#2B2B2B" d="M152.793,44.703c-0.57-0.679-0.569-1.373-0.227-2.148
		C153.454,43.233,152.731,44.021,152.793,44.703z"/>
	<path fill-rule="evenodd" clip-rule="evenodd" fill="#2B2B2B" d="M54.107,46.9c-0.009-8.806-0.016-17.614-0.024-26.419
		c1.136,1.123,0.625,2.551,0.636,3.839c0.054,6.367,0.047,12.734,0.004,19.101C54.716,44.594,55.158,45.895,54.107,46.9z"/>
	<path fill-rule="evenodd" clip-rule="evenodd" fill="#2B2B2B" d="M309.772,46.747c0-8.942,0-17.885,0-26.827
		c0.114-0.001,0.229-0.003,0.344-0.004c0,8.994,0,17.988,0,26.981C310.002,46.847,309.887,46.797,309.772,46.747z"/>
	<path fill-rule="evenodd" clip-rule="evenodd" fill="#2C2C2C" d="M227.753,46.012c0-8.207,0-16.414,0-24.621
		c0.118-0.001,0.236-0.003,0.354-0.004c0,8.258,0,16.516,0,24.773C227.99,46.111,227.872,46.061,227.753,46.012z"/>
</g>
</svg>
