<?xml version="1.0" standalone="no"?>
<!DOCTYPE svg PUBLIC "-//W3C//DTD SVG 20010904//EN"
 "http://www.w3.org/TR/2001/REC-SVG-20010904/DTD/svg10.dtd">
<svg version="1.0" xmlns="http://www.w3.org/2000/svg"
 width="1035.000000pt" height="465.000000pt" viewBox="0 0 1035.000000 465.000000"
 preserveAspectRatio="xMidYMid meet">

<g transform="translate(0.000000,465.000000) scale(0.100000,-0.100000)"
fill="#000000" stroke="none">
<path d="M6170 3075 l0 -115 165 0 165 0 0 115 0 115 -165 0 -165 0 0 -115z"/>
<path d="M7290 3075 l0 -115 165 0 166 0 -3 113 -3 112 -162 3 -163 2 0 -115z"/>
<path d="M3165 3105 c-50 -18 -100 -71 -114 -122 -6 -21 -11 -71 -11 -110 l0
-73 -30 0 -30 0 0 -125 0 -125 30 0 30 0 0 -535 0 -535 165 0 165 0 0 535 0
535 30 0 30 0 0 125 0 125 -36 0 -37 0 6 41 c6 45 22 62 50 53 15 -5 17 4 17
99 l0 105 -50 11 c-69 15 -167 13 -215 -4z"/>
<path d="M6720 2295 l0 -815 170 0 170 0 0 815 0 815 -170 0 -170 0 0 -815z"/>
<path d="M2445 2870 c-45 -15 -82 -49 -115 -110 l-30 -55 0 78 0 77 -165 0
-165 0 0 -690 0 -690 165 0 164 0 3 539 c3 531 3 540 24 568 17 22 29 28 60
28 35 0 41 -4 56 -35 16 -32 18 -81 18 -567 l0 -533 160 0 160 0 0 583 c0 639
0 643 -59 724 -17 23 -49 50 -76 63 -52 25 -152 35 -200 20z"/>
<path d="M3902 2870 c-120 -22 -190 -69 -233 -156 -27 -54 -33 -79 -37 -159
l-5 -95 162 0 161 0 0 59 c0 102 64 146 114 78 17 -23 22 -46 24 -125 l4 -97
-104 -34 c-227 -74 -306 -127 -349 -238 -19 -48 -23 -83 -27 -203 -7 -244 38
-368 148 -413 85 -35 181 -29 243 15 15 11 41 43 57 71 l30 52 0 -72 0 -73
165 0 165 0 0 558 c0 456 -3 568 -14 606 -44 145 -166 224 -356 231 -52 2
-119 0 -148 -5z m188 -847 c0 -104 -3 -205 -6 -225 -13 -74 -70 -100 -115 -52
-23 25 -24 30 -24 182 0 179 7 201 77 252 69 50 68 53 68 -157z"/>
<path d="M5110 2869 c-52 -16 -100 -56 -121 -103 l-19 -41 0 68 0 67 -165 0
-165 0 0 -690 0 -690 165 0 165 0 0 525 c0 454 2 530 16 564 18 45 64 72 93
54 40 -25 41 -39 41 -600 l0 -543 165 0 165 0 0 505 c0 316 4 522 11 553 20
94 96 124 131 52 16 -32 18 -81 18 -572 l0 -538 164 0 164 0 7 438 c9 532 4
682 -25 775 -36 117 -107 174 -229 184 -101 8 -168 -14 -223 -76 l-44 -49 -33
39 c-18 22 -51 49 -74 61 -49 24 -153 33 -207 17z"/>
<path d="M8110 2869 c-75 -12 -174 -63 -206 -104 -34 -45 -60 -131 -68 -227
l-7 -78 166 0 165 0 0 63 c0 54 4 67 24 86 31 29 68 22 93 -16 14 -21 18 -48
18 -122 l0 -96 -130 -46 c-218 -77 -262 -107 -311 -214 -33 -71 -47 -212 -34
-335 22 -222 99 -312 264 -314 85 -1 148 37 188 113 l28 53 0 -76 0 -76 165 0
165 0 0 554 c0 527 -1 557 -20 619 -53 172 -249 257 -500 216z m180 -878 c0
-206 -1 -220 -21 -245 -39 -49 -101 -23 -114 48 -4 19 -5 95 -3 168 2 108 7
139 21 161 18 27 92 87 109 87 4 0 8 -98 8 -219z"/>
<path d="M9338 2870 c-51 -15 -100 -53 -129 -99 l-29 -45 0 67 0 67 -165 0
-165 0 0 -690 0 -690 165 0 165 0 0 535 0 534 28 15 c35 18 122 36 172 36 l40
0 0 140 0 140 -27 -1 c-16 0 -40 -4 -55 -9z"/>
<path d="M930 2301 c0 -333 4 -580 10 -611 16 -86 53 -155 98 -185 78 -51 233
-53 297 -3 14 11 36 41 50 66 l24 47 1 -67 0 -68 165 0 165 0 0 690 0 690
-159 0 -158 0 -7 -52 c-3 -29 -6 -265 -6 -524 0 -259 -3 -486 -6 -503 -9 -42
-43 -65 -85 -56 -59 13 -59 16 -59 605 l0 530 -165 0 -165 0 0 -559z"/>
<path d="M6170 2170 l0 -690 165 0 165 0 0 690 0 690 -165 0 -165 0 0 -690z"/>
<path d="M7290 2170 l0 -690 165 0 165 0 0 690 0 690 -165 0 -165 0 0 -690z"/>
</g>
</svg>
