<svg height="456pt" viewBox="0 0 456 456.33491" width="456pt" xmlns="http://www.w3.org/2000/svg"><path d="m228.167969 0c-92.21875 0-175.355469 55.550781-210.644531 140.75-35.289063 85.195312-15.785157 183.261719 49.421874 248.472656 57.558594 57.796875 141.609376 80.441406 220.414063 59.382813 78.804687-21.054688 140.355469-82.609375 161.414063-161.410157 21.054687-78.804687-1.589844-162.855468-59.386719-220.414062-42.664063-42.898438-100.71875-66.945312-161.21875-66.78125zm-123.25 395.441406v-19.730468c0-68.066407 55.179687-123.25 123.25-123.25 68.070312 0 123.25 55.183593 123.25 123.25v19.730468c-73.269531 54.078125-173.230469 54.078125-246.5 0zm266.5-16.765625v-2.964843c0-78.984376-64.261719-143.246094-143.25-143.246094s-143.25 64.261718-143.25 143.246094v2.964843c-41.363281-39.199219-64.78125-93.6875-64.75-150.675781 0-114.691406 93.308593-208 208-208 114.691406 0 208 93.308594 208 208 .027343 56.988281-23.386719 111.476562-64.753907 150.675781zm0 0"/><path d="m228.621094 67.148438c-42.695313 0-77.308594 34.613281-77.308594 77.308593 0 42.695313 34.613281 77.308594 77.308594 77.308594 42.695312 0 77.308594-34.613281 77.308594-77.308594-.050782-42.675781-34.632813-77.257812-77.308594-77.308593zm0 134.617187c-31.648438 0-57.308594-25.660156-57.308594-57.308594 0-31.652343 25.660156-57.308593 57.308594-57.308593 31.652344 0 57.308594 25.65625 57.308594 57.308593-.035157 31.636719-25.671876 57.273438-57.308594 57.308594zm0 0"/></svg>